<svg xmlns="http://www.w3.org/2000/svg" viewBox="0 0 179.88 338.8"><defs><style>.cls-1{fill:#fff;}</style></defs><g id="レイヤー_2" data-name="レイヤー 2"><g id="レイヤー_1-2" data-name="レイヤー 1"><path class="cls-1" d="M151.25,4.09V3.75a.83.83,0,0,1,.89-.9H179a.83.83,0,0,1,.9.9V16.3a.83.83,0,0,1-.9.9h-.34a.83.83,0,0,1-.89-.9V5.7c0-.59-.17-.72-.77-.72H152.14A.82.82,0,0,1,151.25,4.09Z" transform="translate(-0.65 -2.85)"/><path class="cls-1" d="M153.63,25c1.46-.07,3.46,1.09,3.61,2.12.09.66-.29,1.84-.87,4.16,1.06,1.09,2.64-.95,4.13-1,1.67-.06,1.89,1.54.7,2.66s-3.54,2-5.84,2.75c-1.44,6.52-3.88,15.12-5.85,19.66-.71,1.66-1.71,2.1-2.51,2.14a1.76,1.76,0,0,1-1.8-1.5c-.07-1.52,1.32-3.14,2.35-5.13a59.15,59.15,0,0,0,5.17-14.44,20.51,20.51,0,0,1-4.77.75,4,4,0,0,1-3.45-2.26,6,6,0,0,1-.71-1.71.58.58,0,0,1,.92-.63,7.6,7.6,0,0,0,3.59,1.48,22.8,22.8,0,0,0,4.92-.5,27.43,27.43,0,0,0,.47-4.53c-.05-1-1.14-1.49-2.12-2.19a.52.52,0,0,1-.08-.86,3,3,0,0,1,2.14-1Zm12.64,29.66c3.11.44,6.56-.08,7.77,0s1.84.75,1.82,1.66c-.05,2.14-5.49,2.23-8.85,1.83-6.35-.77-8.18-3.95-7.64-8.14.2-1.58,1.65-1.45,1.78-.18C161.42,52.27,162.46,54.15,166.27,54.69Zm10-17.18c.08,1.37-.68,2-2.66,2-1.36-.06-3.54.94-4.78,1.32-1,.29-1.26-.68-.66-1.11s1.75-1.21,2.39-1.72.73-1.16-.23-1.78-2.84-.74-4.67-.62c-1.23.09-1.35-1.08-.39-1.46C170.14,32.17,176.07,34.13,176.25,37.51Z" transform="translate(-0.65 -2.85)"/><path class="cls-1" d="M152.78,75.38c1.46-.07,3.46,1.09,3.6,2.12.09.66-.28,1.84-.87,4.16,1.07,1.09,2.65-1,4.13-1,1.68-.06,1.9,1.54.71,2.66a17.48,17.48,0,0,1-5.84,2.75c-1.45,6.52-3.89,15.11-5.85,19.66-.71,1.66-1.71,2.1-2.51,2.14a1.76,1.76,0,0,1-1.8-1.5c-.07-1.53,1.32-3.14,2.35-5.14a59.77,59.77,0,0,0,5.17-14.43,21.06,21.06,0,0,1-4.77.75,4,4,0,0,1-3.45-2.26,6.35,6.35,0,0,1-.72-1.71.59.59,0,0,1,.93-.63,7.56,7.56,0,0,0,3.59,1.48,22.8,22.8,0,0,0,4.92-.5,27.43,27.43,0,0,0,.47-4.53c-.05-1-1.14-1.49-2.12-2.19a.52.52,0,0,1-.09-.86,3,3,0,0,1,2.15-1ZM165.42,105c3.11.44,6.55-.08,7.77,0s1.84.75,1.82,1.66c0,2.14-5.49,2.23-8.85,1.83-6.35-.76-8.19-4-7.64-8.14.2-1.58,1.65-1.45,1.78-.18C160.56,102.62,161.61,104.5,165.42,105Zm-1-20.59c4.89-1.93,10.82,0,11,3.41.07,1.37-.69,2-2.66,2-1.36-.06-3.54.94-4.78,1.32-1,.29-1.26-.68-.66-1.11s1.75-1.21,2.38-1.72.74-1.16-.22-1.78-2.84-.74-4.67-.61c-1.23.08-1.36-1.09-.39-1.47Zm5.53-5.69c-.86-.55-.63-1.18.42-1.14A8.53,8.53,0,0,1,175.16,79a3.19,3.19,0,0,1,1.54,2.65,1.33,1.33,0,0,1-1.42,1.4c-.72,0-1.21-.58-2.26-1.79A12.59,12.59,0,0,0,169.93,78.76Zm3.83-3.53c-.94-.43-.75-1.11.27-1.15A8.43,8.43,0,0,1,179,75.22a3,3,0,0,1,1.54,2.48,1.33,1.33,0,0,1-1.32,1.49c-.74,0-1.07-.48-2.11-1.65A9.38,9.38,0,0,0,173.76,75.23Z" transform="translate(-0.65 -2.85)"/><path class="cls-1" d="M156.94,146.27c.64-1.14,1.84-.76,1.55.54-.17.77-.85,2.71-1,3.63a5.6,5.6,0,0,0,0,2.51c.43,1.53-.06,2.3-1.84,2.27-3.76-.06-7.71-4.43-8.46-9.2a47,47,0,0,1-.17-8.62c0-2-.27-3-2-5.25-1-1.25-.3-2,1.16-1.41,3.43,1.45,4.44,3.59,4.44,5.54s-1.23,5.34-.69,9.05c.38,2.59,2.26,5.21,3.72,5.21a2,2,0,0,0,1.51-1.11c.37-.56,1.4-2.45,1.8-3.16Zm11.3-9.72c-1.49-1-1.07-2.17.79-1.71a11.31,11.31,0,0,1,8.35,10.47c0,1.75-1,2.92-2.28,2.9-1,0-1.51-.62-1.76-2.81-.44-3.92-2-6.86-5.1-8.85Z" transform="translate(-0.65 -2.85)"/><path class="cls-1" d="M165.27,177.53a34.37,34.37,0,0,0-.89,3.73,25.08,25.08,0,0,1,5.81-1.23c1.87.06,2.82,1,2.79,2s-1.87,1.23-3.84,1.47h0c-1.66.21-3.47.5-5.25.83a60.87,60.87,0,0,0-.55,6.56,14.69,14.69,0,0,0,4-1.44,1.29,1.29,0,0,0,.68-1.36c-.08-.59-.29-1.32-.42-1.91s.38-.82,1-.47c1.53.89,3.23,2.2,3.23,3.37s-.87,1.91-2,2.55a26.64,26.64,0,0,1-6.48,2.06c.06,2.41.26,5,.41,6.9,3.67,1,7.09,3.22,8.61,5.94a1.7,1.7,0,0,1-.36,2.38,2,2,0,0,1-2.29-.48,26.13,26.13,0,0,0-5.82-4.81c-.21,3.9-2.74,5.49-6.91,5.49-3.66,0-6-2-6-4.16,0-3.33,3.58-5,8.47-5a14.08,14.08,0,0,1,1.7.1c0-1.68,0-4.12-.07-6a28.81,28.81,0,0,1-3.65.24c-4.56,0-6-1.07-6-3.05s.74-2.35,1.69-1a2.79,2.79,0,0,0,2.82,1.48,33.84,33.84,0,0,0,5.14-.4c0-2.12.1-4.41.19-6.49-2.92.59-5.47,1.2-6.68,1.52a20.59,20.59,0,0,1-4.75.73,5.8,5.8,0,0,1-5-4.14c-.19-.77.39-1.16,1.13-.68A9.06,9.06,0,0,0,150.2,184c2.41.09,7.11-.93,11.15-1.95.1-2.1.19-3.67.2-4.09,0-1.18-.77-1.13-2.07-1.69a.63.63,0,0,1-.22-1.08,3.25,3.25,0,0,1,2.37-.74,7.68,7.68,0,0,1,3.17.71c.87.53.92,1,.47,2.36Zm-9.15,28.81c2.54,0,4.68-.58,5-3.85a11.87,11.87,0,0,0-3-.37c-2.82,0-5.1.87-5.1,2.4C153,205.75,154.55,206.34,156.12,206.34Z" transform="translate(-0.65 -2.85)"/><path class="cls-1" d="M169.64,232.78v.34a.82.82,0,0,1-.89.89H141.92a.82.82,0,0,1-.89-.89V220.56a.82.82,0,0,1,.89-.89h.34a.83.83,0,0,1,.9.89v10.6c0,.6.17.72.76.72h24.83A.83.83,0,0,1,169.64,232.78Z" transform="translate(-0.65 -2.85)"/><path class="cls-1" d="M84.37,8.46c0-.59,1-1,1.79-1a7,7,0,0,1,3.89.84c.89.65,1.09,1.33.92,2.75-.15,1.27-1.74,7.05-1.66,9.34.07,1.92.59,2.48,2.08,2.39,1.08-.06,2.75-1.23,4.56-1.23s3.08.84,3.15,2c.1,1.47-1.45,1.77-3.9,2-1.11.09-3.09.29-4.41.55a8.5,8.5,0,0,0-6.33,8.09c.08,3.77,3.54,4,7.32,4,2.88-.07,5.68-.9,6.81-.94,1.49,0,2.6.65,2.6,1.49s-.59,1.59-1.9,2.08-3.15.81-6.7.9c-6.8.18-10.6-2.15-10.73-6.63s2-7.7,6.46-10.58a4.38,4.38,0,0,1-1.52-3.64c0-1.94.34-7,.34-8.73A2.18,2.18,0,0,0,86,9.92c-1.3-.78-1.66-.91-1.66-1.47Z" transform="translate(-0.65 -2.85)"/><path class="cls-1" d="M103.27,63.93c.94-1.41,2.18-3.07,2.86-3.07.89,0,4.13,2.64,4.13,3.75,0,.59-.73,1-2.47,1H72.71c-.56,0-.94-.17-.94-.85s.38-.85.94-.85ZM79.05,60.39c-.55,0-.94-.17-.94-.85s.39-.85.94-.85H96.89c.89-1.32,2.08-2.85,2.72-2.85.85,0,3.92,2.55,3.92,3.57,0,.6-.77,1-2.34,1ZM97.7,69.46c.85-1.23,1.91-2.64,2.51-2.64.81,0,3.75,2.43,3.75,3.41,0,.59-.69.93-2.22.93H79.43c-.55,0-.93-.17-.93-.85s.38-.85.93-.85Zm0,5.66c.85-1.23,1.91-2.64,2.51-2.64.81,0,3.75,2.43,3.75,3.41,0,.6-.69.94-2.22.94H79.43c-.55,0-.93-.17-.93-.86s.38-.85.93-.85ZM98.17,81c.68-.89,1.53-1.87,2-1.87.89,0,3.53,1.91,3.53,2.85,0,.55-.72.94-1.49,1.23-.08,2.77,0,7.24,0,8.65s-.76,1.61-2,1.61a1.3,1.3,0,0,1-1.36-1.44V90.62H82.88v1.83c0,.94-.68,1.32-2,1.32a1,1,0,0,1-1.19-1.15c0-2.64.21-9-.17-12.6a.51.51,0,0,1,.6-.56A10.19,10.19,0,0,1,84,81Zm.8,7.88c0-2.09,0-4.69,0-6.18H83.18l-.26.05c0,.93,0,3.7,0,4.38v1.75Z" transform="translate(-0.65 -2.85)"/><path class="cls-1" d="M87.21,129.4c.64-1.14,1.84-.77,1.55.53-.17.77-.84,2.72-1,3.64a5.46,5.46,0,0,0,0,2.51c.42,1.52-.07,2.3-1.84,2.27-3.76-.07-7.72-4.43-8.47-9.2a48,48,0,0,1-.17-8.62c0-2-.27-3-2-5.25-1-1.25-.29-2,1.16-1.41,3.43,1.45,4.44,3.59,4.44,5.53s-1.23,5.35-.69,9.06c.38,2.58,2.26,5.2,3.72,5.2a2,2,0,0,0,1.51-1.1c.37-.57,1.4-2.45,1.81-3.16Zm11.3-9.73c-1.49-1-1.07-2.17.79-1.7a11.27,11.27,0,0,1,8.35,10.47c0,1.75-1,2.92-2.28,2.9-1,0-1.5-.62-1.75-2.81-.45-3.93-2-6.86-5.11-8.86Z" transform="translate(-0.65 -2.85)"/><path class="cls-1" d="M83.91,158.22c1.45-.06,3.46,1.09,3.6,2.12.09.66-.29,1.84-.87,4.16,1.06,1.09,2.64-.95,4.13-1,1.68-.06,1.89,1.54.7,2.66s-3.53,2-5.84,2.75c-1.44,6.52-3.88,15.12-5.84,19.66-.72,1.66-1.72,2.1-2.52,2.14a1.76,1.76,0,0,1-1.8-1.5c-.07-1.52,1.33-3.14,2.35-5.13A59.61,59.61,0,0,0,83,169.63a20.6,20.6,0,0,1-4.78.75,4,4,0,0,1-3.44-2.26,5.77,5.77,0,0,1-.72-1.71.59.59,0,0,1,.92-.63,7.6,7.6,0,0,0,3.59,1.48,22.8,22.8,0,0,0,4.92-.5,27.5,27.5,0,0,0,.48-4.53c0-1-1.15-1.49-2.13-2.19-.35-.24-.35-.54-.08-.86a3,3,0,0,1,2.15-1Zm12.63,29.66c3.12.44,6.56-.08,7.78,0s1.84.75,1.81,1.66c0,2.14-5.49,2.23-8.85,1.83-6.35-.76-8.18-4-7.64-8.14.21-1.58,1.65-1.45,1.79-.18C91.69,185.46,92.73,187.34,96.54,187.88Zm10-17.18c.08,1.37-.68,2-2.66,2-1.35-.06-3.53.94-4.78,1.32-1,.29-1.26-.68-.65-1.11s1.75-1.21,2.38-1.72.73-1.16-.22-1.78-2.85-.74-4.67-.62c-1.24.09-1.36-1.08-.4-1.46C100.41,165.36,106.34,167.33,106.52,170.7Z" transform="translate(-0.65 -2.85)"/><path class="cls-1" d="M85.42,224.49a3,3,0,0,0,1.14,2.17c2.51,2.47,7.37,7.06,9,10.14a7.79,7.79,0,0,1,1.29,4,2.07,2.07,0,0,1-2,2.23c-1.14,0-1.8-1.14-2.75-3.52a38.45,38.45,0,0,0-7.47-11.12c-1.33-1.41-1.92-2.48-1.92-3.53,0-1.32.79-3,2.78-5.58,3-4,5.89-7.44,5.89-9,0-.94-.56-1.26-1.12-2.07-.43-.62-.08-1.15.72-1a7.26,7.26,0,0,1,4.47,2.42c.61.76.59,1.38-.37,2.78-1.75,2.55-6.22,6.43-8.65,9.72A4.68,4.68,0,0,0,85.42,224.49Z" transform="translate(-0.65 -2.85)"/><path class="cls-1" d="M77.26,286.41a1.43,1.43,0,0,1-1.44-1.62,4.31,4.31,0,0,1,1.09-2.66,56,56,0,0,0,7.66-14.2,21.2,21.2,0,0,1-5.36.34,4.61,4.61,0,0,1-3.51-2.83,4,4,0,0,1-.31-1.64c0-.6.37-.77.91-.35a8.36,8.36,0,0,0,4,1.75,23.14,23.14,0,0,0,5.06,0,12.27,12.27,0,0,0,.29-3.84c-.18-1.06-.65-1.07-1.92-1.84a.63.63,0,0,1,0-1.14,4.17,4.17,0,0,1,2.27-.67,5.49,5.49,0,0,1,2.46.45,1.22,1.22,0,0,1,.64,1.4,26.38,26.38,0,0,1-.55,2.81c.23.75.65.87,1.29.87s1.63-.85,2.5-.85,1.36.34,1.36,1.07-.42,1.3-1.22,1.84a16.56,16.56,0,0,1-5.35,2.13c-1.88,6-4.42,12.55-7.46,17.19C78.83,285.83,78.15,286.41,77.26,286.41Zm25.51,3.73a16.35,16.35,0,0,0-4.87-3.69c0,.19,0,.37,0,.55,0,3.76-3,5.58-6.13,5.58-3.9,0-6.47-1.84-6.47-4.64S88.74,283,93.52,283c.37,0,.75,0,1.13,0-.13-1.79-.27-3.72-.27-5.32,0-3.21.93-5.36,3-6.74.88-.59,3.78-2,4.14-2.26a.62.62,0,0,0,.16-.92c-.45-.76-1.76-1.19-2.72-1.54s-.9-1.38.43-1.44a9.57,9.57,0,0,1,3.56.61,4.84,4.84,0,0,1,3.3,4.42,2.08,2.08,0,0,1-2.09,2.17c-1.06,0-2.54-.77-4.39-.35-2,.46-3,2-3,4.18a46.24,46.24,0,0,0,.83,7.63c4.2.95,8,3.25,8,5.91a1.32,1.32,0,0,1-1.36,1.49,2,2,0,0,1-1.44-.74Zm-12.4-.5c2.89,0,4.43-1.21,4.43-3.23,0-.3,0-.61,0-.94a14.81,14.81,0,0,0-2.53-.21c-3,0-4.81,1-4.81,2.55C87.44,288.86,88.54,289.64,90.37,289.64Z" transform="translate(-0.65 -2.85)"/><path class="cls-1" d="M83.26,311.18a4,4,0,0,0,2.22,1,18.58,18.58,0,0,0,5.28-1.51,7.75,7.75,0,0,1,2.68-1c2,0,4.85,2.17,4.85,3.66,0,1.23-1.5,2-3.11,3.41a83.41,83.41,0,0,0-8,8.1c-.33.43-.24.64.27.32a11,11,0,0,1,5.77-1.73c5.44,0,9.78,3.42,9.78,8.72s-4.89,9.48-11.35,9.48c-4.59,0-7.28-1.86-7.28-4.83,0-2.14,1.86-3.66,4.22-3.72a6.26,6.26,0,0,1,6.23,5.2,7.16,7.16,0,0,0,4.83-6.69c0-4.12-2.9-6.24-6.94-6.24A10.37,10.37,0,0,0,85.14,329a37.76,37.76,0,0,0-3.22,4.45c-.72,1.07-1.24,1.37-1.91,1.37-1.2,0-2.15-1.68-1-3.73,1.37-2.35,4.13-4.73,7-8.16,2.2-2.62,6.09-7.11,7.26-9.07.58-1,.44-1.63-.41-1.63-1.69,0-5.88,3.79-7.87,3.79-1.75,0-3.54-2.45-3.32-4.3.1-.84.62-1.21,1.52-.49ZM90.9,339h.64c-.18-2.57-1.51-4.06-3.21-4.06a1.73,1.73,0,0,0-2,1.62C86.37,338.19,88.2,339,90.9,339Z" transform="translate(-0.65 -2.85)"/><path class="cls-1" d="M12.6,24.25c0,2.94.17,16.09.17,17.88,0,.94-.59,1.49-2,1.49a1.16,1.16,0,0,1-1.27-1.28c0-1.36.21-8.17.29-13a29.1,29.1,0,0,1-7.7,8.51c-1.15.81-2-.08-1.07-1.19A38.66,38.66,0,0,0,9.24,22.89H2.64c-.55,0-.94-.17-.94-.85s.39-.86.94-.86H9.92c0-4.51,0-11.45-.55-14.43,0-.38.17-.59.55-.59,2.72,0,4.94.25,4.94,1.27,0,.73-.85,1.15-2.17,1.45,0,2.13-.09,8.39-.09,12.3h2.9c.89-1.36,1.95-2.89,2.55-2.89.89,0,3.41,2.64,3.41,3.62,0,.64-.9,1-1.88,1h-7ZM2.34,12.46c-.38-.9.21-1.66,1.19-1.07C5.79,12.8,7.71,15,7.37,16.84a1.77,1.77,0,0,1-2.09,1.62C4.21,18.25,4,17.1,3.53,15.61A18.92,18.92,0,0,0,2.34,12.46ZM16,29.32a28.16,28.16,0,0,0-1.71-2.47c-.59-.73-.21-1.58.9-1.32,2.34.59,4.68,1.91,4.85,3.83a1.74,1.74,0,0,1-1.7,2C17.28,31.49,16.77,30.51,16,29.32ZM14.56,17.14A32,32,0,0,0,16.43,11c.05-.39.34-.73.77-.6,1.53.43,3.87,1.79,3.83,2.56s-.64.85-1.91.76A27.36,27.36,0,0,1,15.92,18C15,18.72,14.09,18.25,14.56,17.14ZM36.4,30c.64-1.41,1.49-3,2-3.07.77-.13,3.58,2.05,3.71,3,.08.64-.69,1.07-1.62,1.19l-5.32.81c0,4.34.12,9,.12,10.05s-.76,1.49-2.17,1.49a1.21,1.21,0,0,1-1.36-1.28c0-1.1.13-5.57.26-9.79l-13.84,2c-.51.09-.94,0-1-.68s.25-.89.81-1L32.1,30.64c0-2.35.08-4.43.08-5.58,0-1.79.13-13.54-.55-17.71a.54.54,0,0,1,.6-.64C35,6.71,37.46,7,37.46,8c0,.72-.89,1.23-2.21,1.53-.13,2.9-.13,13.28-.13,14.9,0,1,0,3.24,0,5.71ZM22.73,22.38c-.64-.73-.29-1.62.85-1.41,2.56.6,5.11,2,5.37,4.05a1.78,1.78,0,0,1-1.58,2.17c-1.1.17-1.74-.85-2.59-2.17A23.62,23.62,0,0,0,22.73,22.38Zm1.11-9.24c-.6-.72-.26-1.58.89-1.32,2.52.6,5.11,2,5.33,4.09a1.85,1.85,0,0,1-1.71,2.17c-1.1.13-1.7-.9-2.51-2.22A25,25,0,0,0,23.84,13.14Z" transform="translate(-0.65 -2.85)"/><path class="cls-1" d="M10.69,81.81c1.78-.6,3.4-1.2,4.81-1.79,1.57-.64,2.08.51.68,1.45a54,54,0,0,1-11.75,5.4c-.13,1.07-.51,2-1.24,2-.89,0-1.57-1.71-2-4a.47.47,0,0,1,.47-.6c2.17-.51,4.22-1.06,6.13-1.62v-10H3.15c-.55,0-.94-.17-.94-.85s.39-.85.94-.85H7.83V61.42H2.77c-.56,0-.94-.18-.94-.86s.38-.85.94-.85h8c.9-1.28,2-2.77,2.6-2.77.85,0,3.7,2.52,3.7,3.54,0,.59-.85.94-2.17.94h-3.4a1.29,1.29,0,0,1-.85.72v8.94h.51c.8-1.24,1.74-2.51,2.3-2.51.76,0,3.1,2.42,3.15,3.32,0,.64-.86.89-1.75.89H10.69Zm24.22,8.13c.85-1.32,2-2.77,2.55-2.77.85,0,3.58,2.56,3.58,3.53,0,.6-.72.94-2,.94H12.35c-.56,0-.94-.17-.94-.85s.38-.85.94-.85H26.18V84.4h-8.9c-.55,0-.93-.17-.93-.85s.38-.85.93-.85h8.9v-6h-5.4v2.12c0,.94-.6,1.37-1.84,1.37-.72,0-1.1-.43-1.1-1.2,0-3.61.34-16.34-.13-21a.49.49,0,0,1,.6-.51,8.94,8.94,0,0,1,3.44,1.45H34.19c.63-.81,1.36-1.7,1.83-1.7.81,0,3.23,1.83,3.23,2.76,0,.56-.68.94-1.4,1.24-.17,3.79,0,14.56,0,16.56,0,1.32-.68,1.62-1.79,1.62s-1.28-.77-1.28-1.45V76.66H29v6h3.71c.85-1.28,1.91-2.68,2.51-2.68.81,0,3.49,2.47,3.53,3.45,0,.59-.81.93-2,.93H29v5.54Zm-14-29.38c-.08,1.24-.13,4.35-.13,6.47h5.49V60.56ZM26.22,75V68.74H20.73v.13L20.78,75ZM29,67h5.88c0-2.68,0-5.15,0-6.47h-5c-.05.34-.35.64-.86.81ZM34.87,75l0-6.21H29V75Z" transform="translate(-0.65 -2.85)"/><path class="cls-1" d="M14.64,108.5c0-.59,1-1,1.79-1a7,7,0,0,1,3.89.84c.89.65,1.1,1.33.92,2.76-.15,1.26-1.74,7-1.66,9.34.07,1.91.59,2.47,2.08,2.39,1.08-.07,2.75-1.24,4.57-1.24s3.07.84,3.15,2c.09,1.47-1.45,1.77-3.91,2-1.11.09-3.09.29-4.4.55a8.5,8.5,0,0,0-6.34,8.09c.08,3.77,3.54,4.05,7.32,4,2.88-.07,5.68-.9,6.81-.94,1.5-.05,2.6.65,2.6,1.5s-.58,1.58-1.9,2.07-3.15.82-6.69.91c-6.81.17-10.61-2.16-10.74-6.64s2-7.7,6.47-10.57a4.4,4.4,0,0,1-1.53-3.65c0-1.94.34-7,.34-8.72A2.17,2.17,0,0,0,16.3,110c-1.3-.78-1.66-.92-1.66-1.47Z" transform="translate(-0.65 -2.85)"/><path class="cls-1" d="M22.61,161.8C23,176.91,30.44,186,40.23,189.21c1.28.43,1.15,1.15,0,1.49a2.91,2.91,0,0,0-1.87,1.2,1.31,1.31,0,0,1-2,.46c-7.32-4-12.65-10.94-14.48-21.58a26.8,26.8,0,0,1-3.4,10.05A29.83,29.83,0,0,1,2.85,193.34c-1.19.43-1.66-.85-.64-1.4,6.9-3.79,10.82-7.58,13.5-12,3.49-5.74,3.79-11.92,3.7-16.39,0-2.08-.17-3.91-.34-5.79,0-.42.09-.64.64-.64,1.41,0,5.54.69,5.54,1.75,0,.6-.73,1.32-2.6,1.62Z" transform="translate(-0.65 -2.85)"/><path class="cls-1" d="M28.65,211.73a6,6,0,1,1,6,6A6,6,0,0,1,28.65,211.73Zm9.88,0a3.92,3.92,0,1,0-3.92,3.92A3.91,3.91,0,0,0,38.53,211.73Z" transform="translate(-0.65 -2.85)"/></g></g></svg>