<svg xmlns="http://www.w3.org/2000/svg" viewBox="0 0 105.94 195.19"><defs><style>.cls-1{fill:#fff;}</style></defs><g id="レイヤー_2" data-name="レイヤー 2"><g id="レイヤー_1-2" data-name="レイヤー 1"><path class="cls-1" d="M89.29,2.38v-.2a.48.48,0,0,1,.52-.52h15.6a.48.48,0,0,1,.52.52V9.49a.48.48,0,0,1-.52.52h-.2a.48.48,0,0,1-.52-.52V3.32c0-.35-.1-.42-.44-.42H89.81A.48.48,0,0,1,89.29,2.38Z" transform="translate(-0.38 -1.64)"/><path class="cls-1" d="M90.68,14.57c.84,0,2,.63,2.09,1.23a9.94,9.94,0,0,1-.5,2.42c.62.63,1.53-.56,2.4-.59s1.1.9.41,1.55a10.37,10.37,0,0,1-3.4,1.6,77.34,77.34,0,0,1-3.4,11.44c-.41,1-1,1.22-1.46,1.24a1,1,0,0,1-1-.87c0-.89.77-1.83,1.37-3a34.66,34.66,0,0,0,3-8.4,12.24,12.24,0,0,1-2.78.44,2.32,2.32,0,0,1-2-1.32,3.16,3.16,0,0,1-.42-1,.34.34,0,0,1,.54-.37,4.27,4.27,0,0,0,2.08.86,13.76,13.76,0,0,0,2.87-.28,16.76,16.76,0,0,0,.27-2.64c0-.61-.66-.87-1.24-1.27a.31.31,0,0,1,0-.51,1.77,1.77,0,0,1,1.25-.55ZM95.05,29c.15,1.42.76,2.51,3,2.83a28.08,28.08,0,0,0,4.52,0c.69,0,1.07.44,1.06,1,0,1.24-3.2,1.29-5.15,1.06-3.7-.44-4.76-2.29-4.45-4.73.12-.92,1-.85,1-.11Zm8.78-7.17c0,.8-.4,1.19-1.55,1.14a11,11,0,0,0-2.78.77c-.56.17-.73-.39-.38-.64s1-.71,1.39-1,.42-.67-.13-1a5.06,5.06,0,0,0-2.72-.36c-.71,0-.79-.63-.23-.85C100.28,18.72,103.73,19.86,103.83,21.82Z" transform="translate(-0.38 -1.64)"/><path class="cls-1" d="M90.18,43.86c.85,0,2,.63,2.1,1.23a10.17,10.17,0,0,1-.51,2.42c.62.63,1.54-.55,2.4-.59s1.1.9.41,1.55a9.8,9.8,0,0,1-3.4,1.6,77.4,77.4,0,0,1-3.39,11.44c-.42,1-1,1.22-1.47,1.24a1,1,0,0,1-1-.87c0-.89.77-1.83,1.36-3a34.24,34.24,0,0,0,3-8.4,11.55,11.55,0,0,1-2.77.44,2.32,2.32,0,0,1-2-1.31,3.58,3.58,0,0,1-.42-1,.35.35,0,0,1,.54-.37,4.45,4.45,0,0,0,2.09.87,13.66,13.66,0,0,0,2.86-.29,15.81,15.81,0,0,0,.28-2.64c0-.61-.67-.87-1.24-1.27a.3.3,0,0,1,0-.5,1.74,1.74,0,0,1,1.25-.56Zm7.35,17.25a26.91,26.91,0,0,0,4.52,0c.69,0,1.07.44,1.06,1,0,1.24-3.19,1.3-5.15,1.06-3.69-.44-4.76-2.29-4.44-4.73.12-.92,1-.84,1-.11C94.71,59.7,95.32,60.79,97.53,61.11Zm-.59-12c2.84-1.12,6.29,0,6.4,2,0,.79-.4,1.18-1.55,1.13A10.73,10.73,0,0,0,99,53c-.56.17-.73-.39-.38-.64s1-.71,1.38-1,.43-.68-.13-1A4.82,4.82,0,0,0,97.17,50c-.72,0-.79-.64-.23-.86Zm3.22-3.31c-.5-.31-.37-.68.24-.66a5,5,0,0,1,2.8.82,1.84,1.84,0,0,1,.89,1.54.77.77,0,0,1-.82.82c-.42,0-.71-.34-1.31-1.05A7.54,7.54,0,0,0,100.16,45.82Zm2.23-2c-.55-.25-.44-.65.15-.67a4.87,4.87,0,0,1,2.88.67,1.72,1.72,0,0,1,.9,1.44.77.77,0,0,1-.77.86c-.43,0-.62-.28-1.23-1A5.37,5.37,0,0,0,102.39,43.77Z" transform="translate(-0.38 -1.64)"/><path class="cls-1" d="M92.6,85.1c.37-.66,1.07-.44.9.31-.1.45-.49,1.58-.57,2.12a3.27,3.27,0,0,0,0,1.46c.25.89,0,1.34-1.07,1.32-2.18,0-4.48-2.58-4.92-5.36a27.32,27.32,0,0,1-.1-5,4.11,4.11,0,0,0-1.19-3c-.57-.73-.17-1.18.67-.82,2,.84,2.59,2.09,2.59,3.22s-.72,3.11-.41,5.27c.22,1.5,1.32,3,2.17,3a1.15,1.15,0,0,0,.88-.64c.21-.33.81-1.42,1-1.84Zm6.57-5.66c-.86-.56-.62-1.26.46-1a6.57,6.57,0,0,1,4.86,6.09c0,1-.57,1.7-1.33,1.69-.6,0-.87-.36-1-1.63a6.62,6.62,0,0,0-3-5.16Z" transform="translate(-0.38 -1.64)"/><path class="cls-1" d="M97.45,103.29a17.46,17.46,0,0,0-.52,2.17,15.06,15.06,0,0,1,3.38-.72c1.09,0,1.64.6,1.62,1.15s-1.09.71-2.23.85h0c-1,.12-2,.3-3.06.49a37,37,0,0,0-.31,3.81,8.53,8.53,0,0,0,2.34-.83.74.74,0,0,0,.4-.8c0-.34-.17-.76-.25-1.11s.23-.47.57-.27c.89.52,1.88,1.28,1.88,2s-.5,1.11-1.19,1.48a15.37,15.37,0,0,1-3.76,1.2c0,1.4.15,2.91.24,4a8.38,8.38,0,0,1,5,3.46,1,1,0,0,1-.2,1.38,1.14,1.14,0,0,1-1.34-.27,15.14,15.14,0,0,0-3.38-2.8c-.13,2.27-1.6,3.19-4,3.19-2.13,0-3.52-1.13-3.52-2.42,0-1.94,2.08-2.9,4.93-2.9a8.22,8.22,0,0,1,1,.06c0-1,0-2.4,0-3.49a16.33,16.33,0,0,1-2.13.14c-2.65,0-3.5-.62-3.48-1.78s.43-1.36,1-.57a1.63,1.63,0,0,0,1.64.85,19.77,19.77,0,0,0,3-.23c0-1.23.06-2.56.11-3.77-1.7.34-3.18.69-3.89.88a12.33,12.33,0,0,1-2.77.43,3.41,3.41,0,0,1-2.89-2.41c-.1-.45.23-.67.66-.4a5.27,5.27,0,0,0,2.47,1,30.07,30.07,0,0,0,6.49-1.14c.06-1.22.11-2.13.11-2.38,0-.68-.45-.66-1.2-1a.36.36,0,0,1-.13-.63,1.91,1.91,0,0,1,1.38-.43,4.44,4.44,0,0,1,1.84.42c.51.3.54.57.28,1.37ZM92.13,120c1.47,0,2.72-.33,2.88-2.23a6.93,6.93,0,0,0-1.75-.22c-1.64,0-3,.51-3,1.4C90.29,119.7,91.21,120,92.13,120Z" transform="translate(-0.38 -1.64)"/><path class="cls-1" d="M100,135.43v.2a.48.48,0,0,1-.52.52H83.87a.49.49,0,0,1-.53-.52v-7.31a.49.49,0,0,1,.53-.52h.19a.48.48,0,0,1,.52.52v6.17c0,.35.1.42.45.42H99.47A.48.48,0,0,1,100,135.43Z" transform="translate(-0.38 -1.64)"/><path class="cls-1" d="M49.73,3c0-.34.61-.57,1-.57A4.17,4.17,0,0,1,53,2.89c.51.38.63.78.53,1.61a41.32,41.32,0,0,0-1,5.43c0,1.12.34,1.44,1.21,1.39.62,0,1.6-.72,2.65-.72s1.79.49,1.83,1.18c.06.86-.84,1-2.27,1.15-.64.05-1.79.17-2.56.32A5,5,0,0,0,49.78,18c0,2.19,2.07,2.35,4.26,2.3a39.41,39.41,0,0,0,4-.55c.87,0,1.52.38,1.52.87s-.34.92-1.11,1.21a12,12,0,0,1-3.89.53c-4,.1-6.17-1.26-6.25-3.86S49.42,14,52,12.3a2.55,2.55,0,0,1-.88-2.12c0-1.13.19-4.06.19-5.07a1.26,1.26,0,0,0-.64-1.28c-.76-.45-1-.53-1-.86Z" transform="translate(-0.38 -1.64)"/><path class="cls-1" d="M60.73,35.25c.54-.82,1.26-1.79,1.66-1.79s2.4,1.54,2.4,2.18c0,.35-.42.6-1.44.6H43c-.32,0-.55-.1-.55-.5s.23-.49.55-.49ZM46.64,33.19c-.32,0-.55-.1-.55-.49s.23-.5.55-.5H57c.53-.77,1.22-1.66,1.59-1.66s2.28,1.49,2.28,2.08c0,.35-.45.57-1.36.57Zm10.85,5.28c.49-.72,1.11-1.54,1.46-1.54s2.18,1.41,2.18,2c0,.35-.4.55-1.29.55h-13c-.32,0-.54-.1-.54-.5s.22-.49.54-.49Zm0,3.29C58,41,58.6,40.22,59,40.22s2.18,1.42,2.18,2c0,.34-.4.54-1.29.54h-13c-.32,0-.54-.1-.54-.49s.22-.5.54-.5Zm.27,3.44c.39-.52.89-1.09,1.19-1.09.52,0,2,1.12,2,1.66,0,.32-.42.55-.86.72,0,1.61,0,4.21,0,5s-.45.94-1.16.94a.77.77,0,0,1-.8-.84v-.85H48.87v1.07c0,.54-.4.77-1.17.77a.61.61,0,0,1-.69-.67c0-1.54.12-5.23-.1-7.33a.3.3,0,0,1,.35-.32,5.9,5.9,0,0,1,2.23.91Zm.47,4.58c0-1.21,0-2.72,0-3.59H49l-.15,0c0,.54,0,2.15,0,2.55v1Z" transform="translate(-0.38 -1.64)"/><path class="cls-1" d="M51.38,73.33c.38-.65,1.08-.44.91.32-.1.45-.5,1.58-.58,2.11a3.27,3.27,0,0,0,0,1.46c.25.89,0,1.34-1.07,1.32-2.19,0-4.49-2.57-4.93-5.35a28.08,28.08,0,0,1-.09-5,4.13,4.13,0,0,0-1.19-3.06c-.58-.72-.18-1.18.67-.82,2,.85,2.58,2.09,2.58,3.22s-.71,3.11-.4,5.27c.22,1.5,1.31,3,2.16,3a1.14,1.14,0,0,0,.88-.64c.22-.33.82-1.43,1.05-1.84ZM58,67.68c-.87-.56-.63-1.26.46-1a6.54,6.54,0,0,1,4.85,6.09c0,1-.56,1.7-1.32,1.68s-.88-.35-1-1.63a6.6,6.6,0,0,0-3-5.15Z" transform="translate(-0.38 -1.64)"/><path class="cls-1" d="M49.46,90.11c.85,0,2,.63,2.1,1.23a10.17,10.17,0,0,1-.51,2.42c.62.63,1.54-.55,2.41-.59s1.1.9.4,1.55a10,10,0,0,1-3.4,1.6,76.22,76.22,0,0,1-3.39,11.44c-.42,1-1,1.22-1.47,1.24a1,1,0,0,1-1-.87c-.05-.89.77-1.83,1.36-3a34.24,34.24,0,0,0,3-8.4,12.07,12.07,0,0,1-2.77.44,2.33,2.33,0,0,1-2-1.31,3.9,3.9,0,0,1-.42-1,.35.35,0,0,1,.54-.37,4.45,4.45,0,0,0,2.09.87,13.66,13.66,0,0,0,2.86-.29,15.81,15.81,0,0,0,.28-2.64c0-.61-.67-.87-1.24-1.27a.31.31,0,0,1,0-.5,1.74,1.74,0,0,1,1.25-.56Zm4.38,14.42c.15,1.42.76,2.51,3,2.83a28.21,28.21,0,0,0,4.53,0c.68,0,1.07.44,1,1,0,1.24-3.19,1.3-5.14,1.06-3.7-.44-4.77-2.29-4.45-4.73.12-.92,1-.85,1-.11Zm8.78-7.16c0,.79-.4,1.18-1.55,1.13a10.73,10.73,0,0,0-2.78.77c-.56.17-.73-.39-.38-.64s1-.71,1.39-1,.42-.68-.13-1a5,5,0,0,0-2.72-.35c-.72.05-.79-.64-.23-.86C59.06,94.26,62.51,95.4,62.62,97.37Z" transform="translate(-0.38 -1.64)"/><path class="cls-1" d="M50.34,128.66a1.71,1.71,0,0,0,.67,1.26c1.46,1.44,4.28,4.11,5.26,5.9a4.54,4.54,0,0,1,.75,2.34,1.21,1.21,0,0,1-1.17,1.3c-.66,0-1.05-.67-1.6-2.05a22.61,22.61,0,0,0-4.35-6.47,3.16,3.16,0,0,1-1.11-2.05c0-.77.45-1.72,1.61-3.25,1.76-2.33,3.43-4.33,3.43-5.26,0-.55-.33-.73-.65-1.2s0-.67.41-.61A4.3,4.3,0,0,1,56.2,120c.35.45.34.81-.22,1.62-1,1.48-3.62,3.74-5,5.65A2.79,2.79,0,0,0,50.34,128.66Z" transform="translate(-0.38 -1.64)"/><path class="cls-1" d="M45.6,164.68a.83.83,0,0,1-.84-.94,2.53,2.53,0,0,1,.64-1.55,32.67,32.67,0,0,0,4.45-8.26,11.87,11.87,0,0,1-3.12.2,2.65,2.65,0,0,1-2-1.64,2.35,2.35,0,0,1-.18-1c0-.35.21-.45.53-.2a4.92,4.92,0,0,0,2.3,1,13.76,13.76,0,0,0,2.94,0,6.91,6.91,0,0,0,.17-2.23c-.1-.61-.38-.62-1.11-1.07a.36.36,0,0,1,0-.66,2.38,2.38,0,0,1,1.32-.39,3.22,3.22,0,0,1,1.43.26.71.71,0,0,1,.38.81,15.16,15.16,0,0,1-.33,1.64c.14.43.38.5.76.5s.94-.49,1.45-.49.79.2.79.62-.25.76-.71,1.08a9.74,9.74,0,0,1-3.11,1.23,43.22,43.22,0,0,1-4.34,10C46.51,164.35,46.11,164.68,45.6,164.68Zm14.83,2.17a9.28,9.28,0,0,0-2.83-2.14c0,.11,0,.21,0,.32A3.28,3.28,0,0,1,54,168.27c-2.27,0-3.76-1.07-3.76-2.7s2-2.87,4.78-2.87l.65,0c-.07-1-.16-2.16-.16-3.09a4.3,4.3,0,0,1,1.73-3.92c.51-.34,2.19-1.17,2.4-1.31a.37.37,0,0,0,.1-.54c-.26-.45-1-.7-1.59-.9s-.52-.8.26-.84a5.65,5.65,0,0,1,2.07.36,2.82,2.82,0,0,1,1.92,2.57,1.21,1.21,0,0,1-1.22,1.26,7.58,7.58,0,0,0-2.55-.2,2.24,2.24,0,0,0-1.75,2.43A27.3,27.3,0,0,0,57.4,163c2.44.55,4.67,1.89,4.67,3.44a.77.77,0,0,1-.8.86,1.17,1.17,0,0,1-.84-.43Zm-7.21-.29c1.68,0,2.58-.7,2.58-1.88,0-.17,0-.35,0-.54a7.84,7.84,0,0,0-1.48-.13c-1.73,0-2.79.61-2.79,1.49C51.52,166.11,52.16,166.56,53.22,166.56Z" transform="translate(-0.38 -1.64)"/><path class="cls-1" d="M49.08,179.1a2.51,2.51,0,0,0,1.3.61,11,11,0,0,0,3.07-.88,4.55,4.55,0,0,1,1.56-.6c1.19,0,2.82,1.26,2.82,2.13,0,.72-.87,1.15-1.81,2a47.31,47.31,0,0,0-4.63,4.72c-.19.25-.14.37.16.18a6.43,6.43,0,0,1,3.36-1c3.16,0,5.68,2,5.68,5.07s-2.84,5.51-6.6,5.51c-2.67,0-4.23-1.08-4.23-2.8a2.3,2.3,0,0,1,2.45-2.17,3.65,3.65,0,0,1,3.63,3,4.15,4.15,0,0,0,2.8-3.89c0-2.39-1.68-3.63-4-3.63a6,6,0,0,0-4.43,2.08A22.31,22.31,0,0,0,48.31,192c-.42.62-.72.8-1.11.8-.7,0-1.25-1-.56-2.17.79-1.37,2.4-2.75,4.09-4.75A65.5,65.5,0,0,0,55,180.63c.34-.57.26-.95-.24-.95-1,0-3.42,2.2-4.58,2.2a2.42,2.42,0,0,1-1.93-2.5c.06-.48.37-.7.89-.28Zm4.45,16.19h.38c-.11-1.49-.89-2.36-1.87-2.36-.75,0-1.14.45-1.14.94C50.9,194.81,52,195.29,53.53,195.29Z" transform="translate(-0.38 -1.64)"/><path class="cls-1" d="M7.33,12.16c0,1.71.1,9.36.1,10.4,0,.55-.35.87-1.14.87a.67.67,0,0,1-.74-.74c0-.8.12-4.76.17-7.56a17,17,0,0,1-4.48,5c-.67.47-1.19-.05-.62-.7a22.32,22.32,0,0,0,4.75-8H1.54c-.33,0-.55-.1-.55-.49s.22-.5.55-.5H5.77A66.26,66.26,0,0,0,5.45,2c0-.22.1-.34.32-.34,1.59,0,2.87.15,2.87.74,0,.42-.49.67-1.26.84,0,1.24,0,4.88,0,7.16H9c.52-.79,1.14-1.68,1.49-1.68a3.75,3.75,0,0,1,2,2.1c0,.37-.52.57-1.09.57H7.33Zm-6-6.86c-.22-.52.13-1,.7-.62,1.31.82,2.42,2.08,2.22,3.17a1,1,0,0,1-1.21.94c-.62-.12-.77-.79-1-1.66A13,13,0,0,0,1.36,5.3Zm8,9.81a15.45,15.45,0,0,0-1-1.44c-.35-.42-.12-.91.52-.76,1.36.34,2.73,1.11,2.82,2.22a1,1,0,0,1-1,1.19C10.05,16.37,9.76,15.8,9.31,15.11ZM8.47,8A19.17,19.17,0,0,0,9.56,4.44c0-.23.2-.43.44-.35.9.25,2.26,1,2.23,1.49s-.37.49-1.11.44A15.85,15.85,0,0,1,9.26,8.5C8.72,8.94,8.2,8.67,8.47,8Zm12.7,7.48c.38-.82.87-1.74,1.19-1.79a3.72,3.72,0,0,1,2.16,1.74c.05.37-.4.62-.94.69l-3.1.47c0,2.53.07,5.25.07,5.84s-.44.87-1.26.87a.7.7,0,0,1-.79-.74c0-.65.07-3.25.15-5.7l-8,1.19c-.3.05-.55,0-.6-.4s.15-.51.48-.56l8.19-1.24c0-1.37,0-2.58,0-3.25a98.29,98.29,0,0,0-.32-10.3A.31.31,0,0,1,18.75,2c1.63,0,3,.15,3,.77,0,.42-.52.72-1.28.89-.08,1.68-.08,7.72-.08,8.67,0,.59,0,1.88,0,3.31Zm-8-4.44c-.37-.42-.17-.94.5-.81,1.49.34,3,1.16,3.12,2.35a1,1,0,0,1-.92,1.26c-.64.1-1-.49-1.51-1.26A12.42,12.42,0,0,0,13.22,11.07Zm.65-5.37c-.35-.42-.15-.92.52-.77,1.46.35,3,1.19,3.09,2.38a1.06,1.06,0,0,1-1,1.26c-.64.08-1-.52-1.46-1.29A13.63,13.63,0,0,0,13.87,5.7Z" transform="translate(-0.38 -1.64)"/><path class="cls-1" d="M6.22,45.65c1-.35,2-.7,2.79-1s1.22.29.4.84a31.53,31.53,0,0,1-6.83,3.14c-.08.62-.3,1.19-.72,1.19s-.92-1-1.14-2.3A.27.27,0,0,1,1,47.13c1.26-.29,2.45-.62,3.57-.94V40.4H1.83c-.32,0-.54-.1-.54-.5s.22-.49.54-.49H4.56V33.79H1.61c-.32,0-.55-.1-.55-.5s.23-.5.55-.5H6.29c.52-.74,1.14-1.61,1.51-1.61S10,32.65,10,33.24c0,.35-.5.55-1.27.55h-2a.73.73,0,0,1-.49.42v5.2h.29C7,38.69,7.53,38,7.85,38a3.64,3.64,0,0,1,1.83,1.93c0,.37-.49.52-1,.52H6.22Zm14.09,4.73c.49-.77,1.14-1.61,1.48-1.61.5,0,2.08,1.48,2.08,2,0,.35-.42.55-1.19.55H7.18c-.32,0-.54-.1-.54-.5s.22-.49.54-.49h8.05V47.16H10.05c-.32,0-.54-.1-.54-.5s.22-.49.54-.49h5.18V42.65H12.08v1.24c0,.54-.34.79-1.06.79-.42,0-.64-.25-.64-.69,0-2.11.19-9.51-.08-12.24a.28.28,0,0,1,.35-.29,5.15,5.15,0,0,1,2,.84h7.23c.37-.47.79-1,1.06-1,.47,0,1.88,1.06,1.88,1.61,0,.32-.39.54-.81.72-.1,2.2,0,8.47,0,9.63,0,.77-.4.94-1,.94s-.74-.44-.74-.84v-.72H16.89v3.52H19c.5-.75,1.12-1.56,1.47-1.56s2,1.43,2,2c0,.35-.47.55-1.19.55H16.89v3.22ZM12.13,33.29c-.05.72-.07,2.53-.07,3.76h3.19V33.29Zm3.12,8.37V38H12.06v.08l0,3.54Zm1.64-4.61h3.42c0-1.56,0-3,0-3.76H17.38c0,.2-.19.37-.49.47Zm3.39,4.61,0-3.62H16.89v3.62Z" transform="translate(-0.38 -1.64)"/><path class="cls-1" d="M8.52,61.18c0-.34.6-.57,1-.57a4,4,0,0,1,2.26.49c.52.38.64.77.54,1.6a43.56,43.56,0,0,0-1,5.43c0,1.12.34,1.44,1.21,1.39.63,0,1.6-.71,2.66-.71S17,69.29,17.09,70c.05.85-.84,1-2.27,1.14-.65.06-1.8.17-2.57.32a5,5,0,0,0-3.68,4.71c0,2.19,2.06,2.36,4.26,2.3,1.67,0,3.3-.52,4-.54.87,0,1.51.37,1.51.87s-.34.92-1.1,1.2a11.8,11.8,0,0,1-3.9.53c-4,.1-6.17-1.26-6.24-3.86s1.14-4.48,3.76-6.15a2.56,2.56,0,0,1-.89-2.12c0-1.13.2-4.06.2-5.08A1.27,1.27,0,0,0,9.48,62c-.75-.45-1-.53-1-.85Z" transform="translate(-0.38 -1.64)"/><path class="cls-1" d="M13.15,92.19c.22,8.79,4.56,14.06,10.25,16,.75.24.67.66,0,.86a1.71,1.71,0,0,0-1.09.7.77.77,0,0,1-1.17.27c-4.26-2.3-7.35-6.37-8.42-12.56a15.56,15.56,0,0,1-2,5.85,17.39,17.39,0,0,1-9.11,7.28c-.69.25-1-.5-.37-.82,4-2.2,6.29-4.41,7.85-7a17.31,17.31,0,0,0,2.15-9.54c0-1.21-.1-2.28-.2-3.37,0-.24.05-.37.38-.37.81,0,3.22.4,3.22,1,0,.35-.43.77-1.52.94Z" transform="translate(-0.38 -1.64)"/><path class="cls-1" d="M16.67,121.24a3.47,3.47,0,1,1,3.46,3.47A3.48,3.48,0,0,1,16.67,121.24Zm5.74,0a2.28,2.28,0,1,0-2.28,2.28A2.27,2.27,0,0,0,22.41,121.24Z" transform="translate(-0.38 -1.64)"/></g></g></svg>