<svg xmlns="http://www.w3.org/2000/svg" viewBox="0 0 306.07 105.15"><defs><style>.cls-1{fill:#141414;}</style></defs><g id="レイヤー_2" data-name="レイヤー 2"><g id="レイヤー_1-2" data-name="レイヤー 1"><path class="cls-1" d="M27,62.12c0,1.08-2,2.46-6,4.12a47,47,0,0,1-4.81,1.87q-3.75,11.37-8,23.55C6.72,95.87,5.36,98,4.11,98.16q-2.86,0-2.87-5A10.25,10.25,0,0,1,3.55,87.1q1.82-2.11,6-14.93.24-.81.81-2.49a7.24,7.24,0,0,1-2.12.25c-2.3-.13-3.84-.5-4.63-1.13-1-.58-1.56-1.16-1.56-1.75,0-.16,1.27-.52,3.81-1.06a40.83,40.83,0,0,0,6.19-1.87,39,39,0,0,0,1.62-8.5c-.08-.37-.25-1-.5-2a4.49,4.49,0,0,1-.63-1.69c0-1.17.44-1.75,1.32-1.75,1,0,2.49.85,4.37,2.56q2.25,2.13,2.25,3.94A6.06,6.06,0,0,1,19,59.06a6.07,6.07,0,0,0-.94,2.37q4.81-2.11,5.94-2.12C26,59.31,27,60.24,27,62.12Zm15.68,8.74q-.19,2.51-4.81,2.56-10.49.08-13.18.69a12.4,12.4,0,0,0-5.12,2.25q.93-3.69,6.75-6.43a24.06,24.06,0,0,1,10.49-2.81C40.57,67.12,42.52,68.36,42.65,70.86Zm1.81,23.42q-.12,2.82-5.31,2.82c-5.49,0-10.1-1.07-13.8-3.19q-5-2.86-5-6.62a7.87,7.87,0,0,1,1.06-3.75Q22,87.6,25,88.85a32.07,32.07,0,0,0,8.37,1.25,10.17,10.17,0,0,0,2.31-.37,16.9,16.9,0,0,1,2.37-.25A8.22,8.22,0,0,1,42.4,90.6,4,4,0,0,1,44.46,94.28ZM40.15,60.81c-.08,1.66-1.1,2.52-3.06,2.56A4,4,0,0,1,35,62.24q-1.38-1.05-4.68-6.05,5.3.3,7.49,1.5A4.06,4.06,0,0,1,40.15,60.81Zm5.93-5.44c0,1.54-1,2.36-2.93,2.44-.63.12-1.31-.21-2.06-1a34.9,34.9,0,0,1-4.75-6.12,23.59,23.59,0,0,1,7.5,1.5A4.67,4.67,0,0,1,46.08,55.37Z"/><path class="cls-1" d="M83.14,78.17a49.56,49.56,0,0,0-1.44,9.56,8.23,8.23,0,0,0,.38,2.37,3.76,3.76,0,0,1,.5,1.87c0,1.79-1.17,2.73-3.38,2.81s-4.39-1-6.8-3.31a18.53,18.53,0,0,1-4.75-7.3,50.32,50.32,0,0,1-2-10.68c-.37-3.67-.83-5.89-1.37-6.69a3.78,3.78,0,0,1-1.07-1.74,1.47,1.47,0,0,1,1.69-1.63,10.24,10.24,0,0,1,3.75,1.5c2,1.12,3,2,3.06,2.75a4.37,4.37,0,0,1-.13.5l-.31.62v2.75q0,8.74,2.63,12.68c.95,1.37,1.68,2.06,2.18,2.06S78.89,83.58,83.14,78.17Zm26.79.19q-.18,5.06-4.68,5.06c-1.42-.13-2.29-1.42-2.63-3.88A24.28,24.28,0,0,0,100.69,72a28.15,28.15,0,0,0-5.5-7.5q6.87,1.94,9.18,3.62A13.81,13.81,0,0,1,109.93,78.36Z"/><path class="cls-1" d="M166.47,90.35c-.21.92-1,1.6-2.44,2.06a36.24,36.24,0,0,1-23.67-.62q-7.5-3-7.49-9.31,0-3.56,5-8.37a37.69,37.69,0,0,0-1.31,7.12q-.06,2.44,3.94,3.87a27.18,27.18,0,0,0,9.37,1.63,35.27,35.27,0,0,0,9.92-1.88c1-.37,1.52-.56,1.57-.56a4.48,4.48,0,0,1,3.68,2A9.44,9.44,0,0,1,166.47,90.35Zm-6.25-27.92c-.12,1.17-.87,1.75-2.25,1.75q-5.17,0-16.92,4.25a43.43,43.43,0,0,1,5.31-4.75,11.35,11.35,0,0,1-6.87-7.31A47.17,47.17,0,0,0,154,58.43C158.06,58.43,160.14,59.77,160.22,62.43Z"/><path class="cls-1" d="M238.12,75.24a58.51,58.51,0,0,1-4.69,14.55,20.05,20.05,0,0,1-6.49,7.49,10.91,10.91,0,0,1-6.56,1.94Q211.2,99.09,211.2,88q0-4.56-2-4.56a6,6,0,0,0-3.43,1.68,45.88,45.88,0,0,0-6.06,6.25A34.55,34.55,0,0,0,195,98c-1.12,1.87-2,2.79-2.5,2.75-1,0-1.93-.75-2.81-2.13a7.15,7.15,0,0,1-1.18-3.87c0-.71.54-1.58,1.62-2.62a57.57,57.57,0,0,0,5.18-8.43q2.68-4.82,8.06-14.74t5.43-12.81a1.61,1.61,0,0,0-.25-.81,2.76,2.76,0,0,1-.12-.69c0-.95.33-1.43,1-1.43.91,0,2.21.71,3.87,2.12s2.65,2.6,2.69,3.94a2.31,2.31,0,0,1-1.25,1.49q-.88.69-14.93,24.24,3.43-2.82,4.94-3.87A11.26,11.26,0,0,1,210.64,79a6.19,6.19,0,0,1,3.75,1.25q1.43,1.38,1.43,5.94t1.44,5.43A8.24,8.24,0,0,0,221.82,93q2.43,0,6-2.75Q232.13,86.92,238.12,75.24Z"/><path class="cls-1" d="M258.1,52.19c.75,0,1.48.62,2.19,1.87a9.87,9.87,0,0,1,.5,1.25q12.18-.75,31.72-3.5a15.66,15.66,0,0,1,1.63-.12c1,0,2.89.9,5.68,2.68q4.56,4.07,4.56,5.06c0,1-.87,1.5-2.62,1.5a39.44,39.44,0,0,0-10.87,2c-.54,0-.81-.16-.81-.5A16.07,16.07,0,0,1,291.83,60a6.85,6.85,0,0,0,1.25-2.57c0-.12-.13-.31-.38-.56a3.21,3.21,0,0,0-1.56-.37,128.65,128.65,0,0,0-14.05.81q-5.94.69-15.24,2.25c-.54.12-1,.21-1.31.25a14.1,14.1,0,0,1-.82,1.93,15,15,0,0,1-3,4.31,3.55,3.55,0,0,1-1.81.69,4.37,4.37,0,0,1-3.07-1.5,4.42,4.42,0,0,1-.93-2.81,2.31,2.31,0,0,1,.69-1.69c1.53-1.24,3.33-3.8,5.37-7.68A1.2,1.2,0,0,1,258.1,52.19Zm24.8,9.05a6.38,6.38,0,0,1,1.87.5c1.08.75,1.62,1.42,1.62,2a3.48,3.48,0,0,1-.25,1.32,1.49,1.49,0,0,1-.81.93q-4.74.87-9.87,1.44,1.38.69,1.38,1.56c0,.21-.29.42-.88.62s-.87.67-1.25,1c-.95.75-2.06,1.54-3.31,2.38a13.85,13.85,0,0,1,6.44,4.93l1.12.56a20.89,20.89,0,0,0,3.44-3.81,32,32,0,0,0,3.49-6.31c.29-.62.63-.93,1-.93.67,0,1.86.68,3.56,2.06,1.58,1.21,2.38,2.29,2.38,3.25,0,.66-.5,1.23-1.5,1.68a40.9,40.9,0,0,0-6.25,2.69l-4.56,2.37a1,1,0,0,0,.25.19q7.62,6.24,12.62,8.49,4.8,2.13,12.24,4.56c.29.09.44.25.44.5s-.42.5-1.25.63a55.18,55.18,0,0,1-11.49,1.62,5.2,5.2,0,0,1-4-1.87q-3.81-3.81-8-8.62c-.25-.33-.5-.65-.75-.94a27.6,27.6,0,0,1,.82,6.69q0,8.92-2.75,11.74t-5,2.68a1.86,1.86,0,0,1-1.68-.87q-1.44-2.07-6.56-5.81c0-.33.31-.5.93-.5,0,.08.4.21,1.19.37a12.59,12.59,0,0,0,3.56.38,2,2,0,0,0,2-1.62A26.54,26.54,0,0,0,274.9,88c-1,.83-2,1.71-3.06,2.62a42.93,42.93,0,0,1-7.56,4.81,70.06,70.06,0,0,1-7,2.69,27,27,0,0,1-3.88.81h-.5a47.89,47.89,0,0,0,6.62-4.19,65.46,65.46,0,0,0,8.5-6.43,26.35,26.35,0,0,0,4.12-4.56A2.66,2.66,0,0,0,272.9,82c0-.37.25-.56.75-.56a4.39,4.39,0,0,1,.69.06c-.09-.41-.17-.81-.25-1.19s-.33-.83-.5-1.25a4.31,4.31,0,0,1-.31.38c-1,.79-2,1.67-3.19,2.62a35.28,35.28,0,0,1-5.37,3.13,31,31,0,0,1-4.93,1.74,19.69,19.69,0,0,1-2.63.57h-.5a33.22,33.22,0,0,0,4.13-2.88,41.85,41.85,0,0,0,5.43-4.49A20.89,20.89,0,0,0,268.84,77a2.18,2.18,0,0,0,.5-1.31q0-.18.57-.18c.49,0,1,0,1.43.06a11.51,11.51,0,0,0-1.62-1.44,35.48,35.48,0,0,1-4.94,2.25A40,40,0,0,1,259,78.17a27.3,27.3,0,0,1-3.19.5h-.5a31,31,0,0,0,4.87-2.87,63.2,63.2,0,0,0,6.25-4.62A19.69,19.69,0,0,0,269.59,68l.06-.06q-3.61,0-4.68-1.81a3.78,3.78,0,0,1-.87-1.63c0-.33.18-.5.56-.5A96.27,96.27,0,0,0,276,62.87a55.3,55.3,0,0,0,5.68-1.38A3,3,0,0,1,282.9,61.24Zm-12-16a15.47,15.47,0,0,1,4.63.93A8.9,8.9,0,0,1,279,47.94a2.8,2.8,0,0,1,.81,2.06c0,2.17-1.22,3.25-3.68,3.25-1,0-2.12-1-3.5-3.12-1.66-2.38-2.5-3.83-2.5-4.37C270.15,45.46,270.4,45.3,270.9,45.26Z"/><path class="cls-1" d="M3.56,3.44c.37,0,.73.31,1.08.92A3.5,3.5,0,0,1,4.89,5q6-.36,15.73-1.73a7.66,7.66,0,0,1,.81-.06,7.08,7.08,0,0,1,2.81,1.33C25.75,5.86,26.5,6.7,26.5,7c0,.49-.43.74-1.3.74a19.45,19.45,0,0,0-5.38,1c-.27,0-.41-.08-.41-.25a8.3,8.3,0,0,1,.87-1.2A3.48,3.48,0,0,0,20.9,6c0-.07-.06-.16-.19-.28a1.49,1.49,0,0,0-.77-.19A65.94,65.94,0,0,0,13,6Q10,6.32,5.42,7.09c-.27.06-.49.1-.65.12a9.37,9.37,0,0,1-.4,1,7.46,7.46,0,0,1-1.49,2.14,1.72,1.72,0,0,1-.9.34A2.21,2.21,0,0,1,.46,9.91,2.18,2.18,0,0,1,0,8.51a1.12,1.12,0,0,1,.34-.83A13,13,0,0,0,3,3.87.6.6,0,0,1,3.56,3.44ZM15.85,7.93a3.11,3.11,0,0,1,.93.24c.54.38.81.71.81,1a1.56,1.56,0,0,1-.13.64.73.73,0,0,1-.4.47c-1.57.29-3.2.53-4.89.71.45.23.68.49.68.78,0,.1-.15.2-.43.31a6.71,6.71,0,0,0-.62.49c-.48.37-1,.76-1.64,1.18a6.85,6.85,0,0,1,2,1.14,6.77,6.77,0,0,1,1.2,1.3l.56.28a10.83,10.83,0,0,0,1.71-1.89,16.64,16.64,0,0,0,1.73-3.12c.14-.31.31-.47.49-.47a3.94,3.94,0,0,1,1.77,1c.78.6,1.18,1.14,1.18,1.61s-.25.61-.75.84a19.79,19.79,0,0,0-3.09,1.33L14.68,17a.47.47,0,0,0,.12.09,30.31,30.31,0,0,0,6.26,4.21c1.58.7,3.61,1.46,6.06,2.26.15,0,.22.12.22.25s-.21.25-.62.31a26.94,26.94,0,0,1-5.7.8A2.59,2.59,0,0,1,19,24c-1.26-1.25-2.58-2.68-4-4.27-.12-.16-.25-.32-.37-.46a13.75,13.75,0,0,1,.4,3.31q0,4.42-1.36,5.82a3.72,3.72,0,0,1-2.48,1.33.94.94,0,0,1-.84-.43,15.14,15.14,0,0,0-3.25-2.88c0-.17.16-.25.47-.25,0,0,.19.11.59.19A6.42,6.42,0,0,0,10,26.5a1,1,0,0,0,1-.8,13,13,0,0,0,.9-4.49c-.47.41-1,.85-1.52,1.3a21.3,21.3,0,0,1-3.74,2.38,36.34,36.34,0,0,1-3.5,1.34,15,15,0,0,1-1.92.4H1a23.77,23.77,0,0,0,3.28-2.08,31.58,31.58,0,0,0,4.21-3.19A13.28,13.28,0,0,0,10.5,19.1a1.29,1.29,0,0,0,.4-.9c0-.18.12-.27.37-.27l.34,0c0-.21-.08-.4-.12-.59s-.17-.41-.25-.62a2.11,2.11,0,0,1-.15.19c-.48.39-1,.82-1.58,1.3a17.83,17.83,0,0,1-2.67,1.55,14.54,14.54,0,0,1-2.44.86,9.6,9.6,0,0,1-1.3.28H2.85a16.39,16.39,0,0,0,2-1.42,21.52,21.52,0,0,0,2.7-2.23,10.36,10.36,0,0,0,1.3-1.55,1.14,1.14,0,0,0,.24-.65c0-.06.1-.09.28-.09s.49,0,.72,0a5.76,5.76,0,0,0-.81-.72,16.45,16.45,0,0,1-2.45,1.12,20.49,20.49,0,0,1-2.84.9,13.9,13.9,0,0,1-1.58.24H2.2a15,15,0,0,0,2.41-1.42,30.14,30.14,0,0,0,3.1-2.29,10,10,0,0,0,1.55-1.58l0,0c-1.2,0-2-.3-2.32-.9a1.93,1.93,0,0,1-.44-.8c0-.17.1-.25.28-.25a46.4,46.4,0,0,0,5.64-.56,24.77,24.77,0,0,0,2.81-.68A1.52,1.52,0,0,1,15.85,7.93ZM9.91,0A7.54,7.54,0,0,1,12.2.46a4.34,4.34,0,0,1,1.73.87,1.39,1.39,0,0,1,.41,1c0,1.08-.61,1.61-1.83,1.61-.48,0-1-.51-1.73-1.55A6.69,6.69,0,0,1,9.54.25C9.54.1,9.66,0,9.91,0Z"/><path class="cls-1" d="M52.93,3.84a3,3,0,0,1,1.58.52,1.46,1.46,0,0,1,.77,1.3c0,.69-.16,1-.49,1A66.89,66.89,0,0,0,45,7.37a33.1,33.1,0,0,0-4.39.93q-.75.18-1,.21c-.11,1.22-.23,2.36-.38,3.41a.09.09,0,0,1,.07,0,5.79,5.79,0,0,0,2.16-1.55,1.06,1.06,0,0,1,.68-.34,5.8,5.8,0,0,1,1.74.5c1.07.53,1.61,1,1.61,1.39,0,.12-.14.26-.4.4a2,2,0,0,0-.84,1.05,21.16,21.16,0,0,1-1.89,3.1.22.22,0,0,0,.25.25,3.93,3.93,0,0,0,.77-.1,3.3,3.3,0,0,1,.87-.15c.19,0,.5.22.93.65A2.37,2.37,0,0,1,46,18.7c0,.08-.09.2-.27.34a2.14,2.14,0,0,0-.84,1.08c-.37.77-.71,1.43-1,2a42.35,42.35,0,0,0,6.47,2.94q2.13.9,9.5,1.08c0,.37-.23.6-.71.68q-6.81,2.3-8.58,2.29a1.64,1.64,0,0,1-.86-.43c-3-2.21-5.25-3.85-6.75-4.92a5,5,0,0,1-.47.65,10.38,10.38,0,0,1-3.4,2.82,5.27,5.27,0,0,1-1.89.77.11.11,0,0,1-.12-.12,32,32,0,0,0,2.78-3,10,10,0,0,0,1.52-2.16.35.35,0,0,0-.12-.1,2.18,2.18,0,0,0-.93-.31l-1.24.13c-.44,0-.65-.33-.65-1,0-.23.23-.39.71-.47a5.46,5.46,0,0,1,1.42-.31,3.07,3.07,0,0,1,1.52.47A5.32,5.32,0,0,0,42.62,19c-.1-.5-.26-.75-.47-.75a4.75,4.75,0,0,0-1.36.25c-.6,0-.9-.45-.9-1.36a.4.4,0,0,1,.19-.34,1,1,0,0,0,.59-.68,12.48,12.48,0,0,0,.86-2.63,3.46,3.46,0,0,0,.13-.71,4,4,0,0,1-1.64.52,2,2,0,0,0-.59-.22,1.4,1.4,0,0,1-.25-.64q-.47,3.3-1.08,5.81A27.17,27.17,0,0,1,35.62,24,15.63,15.63,0,0,1,32.12,28a.89.89,0,0,1-.52.15V28a22.17,22.17,0,0,0,2.1-4.15A35.92,35.92,0,0,0,35.87,16a50.93,50.93,0,0,0,.59-7.68A1.88,1.88,0,0,0,36.12,7a1.25,1.25,0,0,1-.31-.56c0-.35.12-.53.37-.53a10.26,10.26,0,0,1,2.44.44l.31.06c2.36-.35,4.45-.69,6.29-1C47.28,5,49.38,4.53,51.5,4A7.65,7.65,0,0,1,52.93,3.84ZM45,.71a10.2,10.2,0,0,1,2.39.37,5.51,5.51,0,0,1,1.76.62.93.93,0,0,1,.47.78c0,1.15-.67,1.73-2,1.73-.45,0-1-.45-1.73-1.36A5.07,5.07,0,0,1,44.63,1C44.63.82,44.74.73,45,.71ZM51.2,7.8a9.86,9.86,0,0,1,2.22.68c.91.48,1.37.87,1.37,1.18s-.13.32-.37.4a11.82,11.82,0,0,1-1.71.72,12.76,12.76,0,0,0-1.58.55,6.49,6.49,0,0,1,.59.28c1,.31,1.43.6,1.43.87V13a6,6,0,0,0-.22,1.27l1.73-.49a4.11,4.11,0,0,1,1-.13,3,3,0,0,1,1.61.53,1.48,1.48,0,0,1,.78,1.3c0,.66-.17,1-.5,1a46.77,46.77,0,0,0-4.7.22c0,.86,0,1.85,0,3l.44-.12a3.76,3.76,0,0,1,1.17-.22,3.22,3.22,0,0,1,1.58.46c.69.5,1,1,1,1.43a.81.81,0,0,1-.25.46.79.79,0,0,1-.59.25c-2,0-3.57.06-4.83.19-.79.1-1.76.29-2.91.55a.44.44,0,0,1-.19,0c-.24,0-.6-.24-1-.74s-.59-.72-.59-.87a.25.25,0,0,1,.28-.27l1.89-.35,1.55-.24c0-1.2,0-2.25-.06-3.16-.73.12-1.5.29-2.33.49a2.89,2.89,0,0,1-.68.16,2.07,2.07,0,0,1-1.3-.74c-.47-.44-.71-.8-.71-1.09,0-.08.09-.12.28-.12,1.77-.31,3.32-.6,4.64-.87A9.71,9.71,0,0,0,50,13.1a2.44,2.44,0,0,0-.47-.9.51.51,0,0,1-.12-.16,8.2,8.2,0,0,1-2.14.56c-.51,0-.77,0-.77-.12a15.28,15.28,0,0,0,2.69-1.74,5,5,0,0,0,1.3-1.45A7.51,7.51,0,0,0,51,8.05.22.22,0,0,1,51.2,7.8Z"/><path class="cls-1" d="M88.27,15.26a8.53,8.53,0,0,1-2.91,6.6,15.28,15.28,0,0,1-8.17,3.41,17.25,17.25,0,0,0,5.88-5.05,9.83,9.83,0,0,0,1.7-5.3,8.51,8.51,0,0,0-1.14-4.61,4.55,4.55,0,0,0-4-2.29H78.8a7.63,7.63,0,0,1,.55,1.79,16.4,16.4,0,0,1-1.58,6,15.75,15.75,0,0,1-3.5,5.14,5.78,5.78,0,0,1-3.15,1.73c-.85-.06-1.61-.83-2.3-2.32a13.5,13.5,0,0,1-1.48-5.66,7.08,7.08,0,0,1,1.39-4,10,10,0,0,1,4.18-3.62A14.11,14.11,0,0,1,79,5.88a9,9,0,0,1,6.66,2.6A9.26,9.26,0,0,1,88.27,15.26ZM76.84,9.19a4.47,4.47,0,0,0-.12-.89,10.59,10.59,0,0,0-1.92.43,9,9,0,0,0-4,3.22,5.83,5.83,0,0,0-1.46,3.5,6.89,6.89,0,0,0,.87,3.25,1.56,1.56,0,0,0,1.3,1c.43,0,1.22-.77,2.35-2.32A14,14,0,0,0,76.84,9.19Z"/><path class="cls-1" d="M96.36,8.89a7.51,7.51,0,0,1,1.89.28,3.26,3.26,0,0,1,.77.37c.48-.07.91-.14,1.3-.22a5.82,5.82,0,0,0,2.36-.81,2.69,2.69,0,0,1,1-.34,6.24,6.24,0,0,1,1.76.59c1,.62,1.55,1.08,1.55,1.36a1.13,1.13,0,0,1-.12.56,8,8,0,0,0-1.58,2.57,14,14,0,0,0-.65,2.08.09.09,0,0,1,0,.06,3,3,0,0,1,.68,1.3.2.2,0,0,1-.19.12,25.92,25.92,0,0,0-3.87.28l-1.64.22v.49c-.08.91-.37,1.37-.86,1.37a1.22,1.22,0,0,1-1-.53,1.7,1.7,0,0,1-.37-.84,28.57,28.57,0,0,1-.46-4.11,23.58,23.58,0,0,0-.44-2.82A3.59,3.59,0,0,0,96,9.54C96,9.1,96.13,8.89,96.36,8.89Zm3.22,6.47c.31,0,.65-.11,1-.19a13.22,13.22,0,0,0,1.86-.37,17.57,17.57,0,0,0,.71-3.9c0-.17-.11-.25-.34-.25a9.16,9.16,0,0,0-1.48.22,12.16,12.16,0,0,1-1.86.24Zm17.87-9.7a3.62,3.62,0,0,1,1,.31c.53.42.8.77.8,1.06a2.48,2.48,0,0,1-.12.77.85.85,0,0,1-.46.5,34.1,34.1,0,0,1-3.84,1.14v3c1.21-.27,2.47-.59,3.77-1a5.14,5.14,0,0,1,1.3-.18,3,3,0,0,1,1.74.65,1.65,1.65,0,0,1,.86,1.49c0,.66-.16,1-.49,1a60.06,60.06,0,0,0-7.15.4V15a37.54,37.54,0,0,0,4.67,5,18.64,18.64,0,0,0,5.61,2.85c.29,0,.43.14.43.28s-.14.36-.43.4a8.62,8.62,0,0,1-1.74.31A32.83,32.83,0,0,1,119,24a1.59,1.59,0,0,1-1.21-.75,23.91,23.91,0,0,1-2.32-3.65c-.21-.33-.4-.64-.56-.93q.09,3.35.25,7.8a3.24,3.24,0,0,1-.72,2.36,1.6,1.6,0,0,1-1.23.83c-.42,0-.9-.56-1.46-1.7a3.43,3.43,0,0,1-.28-1.24,3.8,3.8,0,0,1,.19-1.3,7.53,7.53,0,0,0,.18-1.49q.22-2,.31-5.91a23.79,23.79,0,0,1-2.35,2.85,15.2,15.2,0,0,1-3.47,2.79,19.48,19.48,0,0,1-3.9,1.58V25c.58-.42,1.13-.84,1.64-1.27a25,25,0,0,0,3.1-3.07A25.36,25.36,0,0,0,110.51,16a2.77,2.77,0,0,0,.34-.59l-1.73.43a4.62,4.62,0,0,1-1,.25,2.54,2.54,0,0,1-1.49-.81c-.51-.41-.77-.76-.77-1a.25.25,0,0,1,.28-.28q3.41-.5,6.07-1V11.86c0-.64,0-1.25,0-1.83a6.26,6.26,0,0,1-1,.09,2.64,2.64,0,0,1-2.5-1,2.25,2.25,0,0,1-.47-.93c0-.16.08-.24.25-.24a30.72,30.72,0,0,0,3.68-.47c-.08-2.41-.23-3.76-.46-4a5.07,5.07,0,0,0-.43-1.15.67.67,0,0,1-.19-.46c0-.31.22-.47.65-.47a9.66,9.66,0,0,1,2.66.37c1,.23,1.43.6,1.43,1.12a.85.85,0,0,1-.19.59,3.92,3.92,0,0,0-.46,1.61,7.51,7.51,0,0,0-.25,1.7,11.69,11.69,0,0,0,2-.87A1,1,0,0,1,117.45,5.66Z"/></g></g></svg>